Coordinates
version=1
nRows=19
nColumns=34
inDegrees=yes

Units are S.I. units (second, meters, Newtons, ...)
If the header above contains a line with 'inDegrees', this indicates whether rotational values are in degrees (yes) or radians (no).

endheader
time	pelvis_tilt	pelvis_list	pelvis_rotation	pelvis_tx	pelvis_ty	pelvis_tz	hip_flexion_r	hip_adduction_r	hip_rotation_r	knee_angle_r	ankle_angle_r	subtalar_angle_r	mtp_angle_r	hip_flexion_l	hip_adduction_l	hip_rotation_l	knee_angle_l	ankle_angle_l	subtalar_angle_l	mtp_angle_l	lumbar_extension	lumbar_bending	lumbar_rotation	arm_flex_r	arm_add_r	arm_rot_r	elbow_flex_r	pro_sup_r	arm_flex_l	arm_add_l	arm_rot_l	elbow_flex_l	pro_sup_l
      5.96666670	    -11.03739532	     11.21558250	    -10.30044864	      0.33030284	      0.74494663	      0.00500836	     50.15561581	      6.12884586	      9.99081438	     68.92526646	     26.59182090	    -17.54625654	      0.00000000	     58.19123096	      2.19408787	     -9.68554788	     11.68805488	    -15.68490337	     -2.41744062	      0.00000000	    -12.54560614	     -4.55042083	      1.02551367	     85.44434097	     -3.19926668	     69.52279207	    116.49255427	     89.08473605	     96.12822091	      1.76477696	     82.87263492	    115.45337613	     73.85604452
      5.98333330	    -10.97265819	     11.28666435	    -10.36957832	      0.32730371	      0.73956532	      0.00587869	     51.15173812	      6.44872817	      9.88955770	     70.34158303	     27.77094155	    -17.27131506	      0.00000000	     58.94189405	      1.86720087	     -9.95265713	     11.53967005	    -16.12524671	     -3.59653305	      0.00000000	    -13.84234936	     -4.51642349	      1.37260348	     87.12974771	     -2.86230842	     71.05098696	    117.10045500	     89.27310305	     97.59825796	      1.69959830	     83.69325510	    115.47152738	     74.04318714
      6.00000000	    -10.99813372	     11.31046899	    -10.05538980	      0.32483250	      0.73309519	      0.00464736	     52.09947667	      6.58274776	      9.64894863	     71.60672636	     28.60496540	    -17.95748705	      0.00000000	     59.81241612	      1.81042077	    -10.82871687	     11.49668041	    -16.39800721	     -4.11435440	      0.00000000	    -14.86742086	     -4.20991115	      0.97017600	     87.66785076	     -2.91137998	     71.10598743	    117.10322199	     89.30857876	     97.94520022	      2.28524032	     83.78989813	    115.37609900	     74.07124764
      6.01666670	    -11.18683058	     11.53655292	    -10.00325568	      0.32074363	      0.72579021	      0.00193534	     53.62724679	      6.79435260	      9.78516984	     73.34238704	     29.07971521	    -18.07608681	      0.00000000	     61.02844833	      1.72512032	    -11.15191304	     11.60039380	    -16.84992107	     -5.73427814	      0.00000000	    -16.02491619	     -4.44880105	      0.88873998	     89.24410734	     -3.38132045	     71.65298945	    118.62311797	     89.50940761	     99.83319042	      3.18307880	     84.98299963	    115.21584395	     74.22437818
      6.03333330	    -11.26950060	     11.49519672	     -9.85294926	      0.31425108	      0.72180254	      0.00178836	     54.75659426	      7.05399104	      9.70416090	     74.42964571	     29.32139329	    -18.34812652	      0.00000000	     62.05258783	      1.53925584	    -11.62105332	     11.53829118	    -17.15264731	     -5.91213040	      0.00000000	    -17.20169003	     -4.18691178	      0.37541745	     90.15645218	     -4.16359007	     70.83760403	    117.71715068	     89.47626014	    100.36359677	      3.76959087	     85.02953479	    115.04576210	     74.21966729
      6.05000000	    -11.49675722	     11.68848166	     -9.56756086	      0.31070238	      0.71300593	      0.00052426	     56.23119515	      7.24681275	      9.85442017	     76.00904294	     29.58833352	    -18.65321307	      0.00000000	     63.33110498	      1.59475125	    -12.46522348	     11.58997582	    -17.16547485	     -6.28346311	      0.00000000	    -18.29511344	     -3.98997087	      0.11138218	     91.32445964	     -4.04530349	     70.17371144	    117.75932728	     89.44073060	    102.18545525	      3.87145741	     84.88832595	    114.46493846	     74.18475895
      6.06666670	    -11.60503529	     11.91022955	     -9.32301433	      0.30874017	      0.70874870	      0.00002747	     57.35747026	      7.37799493	      9.89093982	     77.36444446	     29.84939253	    -18.92079275	      0.00000000	     64.37209373	      1.61310266	    -12.82664340	     11.81734409	    -16.61801039	     -6.09755617	      0.00000000	    -19.76776742	     -4.22824053	      0.11521999	     92.93671151	     -4.69439923	     70.14573424	    119.48400042	     89.45285293	    104.47914069	      4.97658161	     85.96040402	    114.33377810	     74.08522454
      6.08333330	    -11.79248553	     12.10368891	     -9.05201374	      0.30367970	      0.70461980	     -0.00009393	     58.58624358	      7.54773316	     10.01540130	     78.52250813	     29.95751829	    -19.16143737	      0.00000000	     65.40242712	      1.55225886	    -12.87492221	     12.02374376	    -16.64632239	     -5.83866948	      0.00000000	    -20.92548930	     -4.18099632	      0.40672125	     94.23534323	     -5.10910160	     69.70658412	    119.65562101	     89.44606035	    105.14515642	      5.40605572	     85.85834865	    114.52112317	     74.03742298
      6.10000000	    -11.95851588	     12.32452626	     -8.76354353	      0.30196016	      0.70049000	     -0.00053831	     59.68925338	      7.55564671	     10.08203662	     79.66505087	     29.62011631	    -19.08090422	      0.00000000	     66.33344210	      1.49773217	    -12.88937731	     12.27850574	    -16.20486645	     -4.34954650	      0.00000000	    -22.47176397	     -4.35369350	      0.53002067	     95.92560336	     -5.46569628	     70.88555118	    122.44397008	     89.62024919	    106.61108160	      5.98225776	     86.26321917	    115.26494603	     73.90376040
      6.11666670	    -12.10136729	     12.50779930	     -8.60825552	      0.30027343	      0.69664032	     -0.00172481	     60.62007398	      7.52276111	     10.11616414	     80.71400029	     29.41442352	    -18.42999841	      0.00000000	     67.20177606	      1.37661333	    -12.78417612	     12.58655373	    -15.67320640	     -3.21540251	      0.00000000	    -23.70016517	     -4.32633201	      0.35098307	     97.23248629	     -5.36738959	     71.21535157	    123.31780726	     89.72364774	    107.47286378	      5.72940093	     86.10287128	    115.38944923	     73.69408734
      6.13333330	    -12.25578919	     12.64938628	     -8.36428383	      0.29975457	      0.69375854	     -0.00111540	     61.41283125	      7.35416912	     10.05227405	     81.61138334	     29.06405035	    -17.47222111	      0.00000000	     67.82871849	      1.30498198	    -12.45290438	     12.50450350	    -15.32294908	     -2.35437817	      0.00000000	    -24.82083144	     -4.16499999	      0.31245059	     98.22263487	     -4.94419721	     71.51994928	    124.12961039	     89.80650691	    107.93901278	      5.53548598	     85.91323236	    115.57920333	     73.54667399
      6.15000000	    -12.46437072	     12.83863118	     -8.40303783	      0.29639954	      0.69098195	     -0.00168531	     62.35777796	      7.37509476	     10.05193128	     82.54342791	     28.89584235	    -16.12383744	      0.00000000	     68.45641840	      0.98696942	    -12.18636384	     12.53105835	    -14.74600201	     -1.78631508	      0.00000000	    -25.88177939	     -4.19031197	      0.41661223	     98.98683096	     -4.87482335	     71.32350221	    123.59406204	     89.81945111	    108.35590366	      5.68862919	     86.02732854	    115.93403724	     73.38982572
      6.16666670	    -12.40584566	     12.86010484	     -8.57813935	      0.29352951	      0.68867987	      0.00218847	     62.86196511	      7.63606361	     10.06786629	     83.05665748	     28.94751829	    -14.88275612	      0.00000000	     68.46736805	      0.30177510	    -12.27425224	     11.90958406	    -14.52154285	     -1.28615286	      0.00000000	    -27.03860472	     -4.27838705	      0.99536016	     99.30393614	     -4.78700735	     71.87533189	    123.50338839	     89.83632129	    108.30459904	      5.64309533	     86.25765316	    116.57933582	     73.26311058
      6.18333330	    -12.48800921	     12.96232959	     -8.73728369	      0.29148495	      0.68736455	      0.00168851	     63.47933438	      7.77064059	     10.14187116	     83.39581513	     29.32448967	    -14.96847670	      0.00000000	     68.76066472	     -0.35966107	    -11.92601481	     11.64539099	    -14.43999546	     -1.30515313	      0.00000000	    -28.02478916	     -4.52294026	      1.06465719	     99.25775171	     -4.46181208	     72.21296402	    123.58244206	     89.85112185	    108.31653791	      5.57677256	     86.30816563	    116.68410251	     73.22369579
      6.20000000	    -12.33459120	     13.04217343	     -8.85099649	      0.28869543	      0.68250037	      0.00436313	     64.11839085	      7.82534832	     10.21805795	     83.82890292	     30.88371428	    -16.41950474	      0.00000000	     68.65685369	     -0.91459581	    -11.82546774	     10.89595771	    -14.63695229	     -2.81450684	      0.00000000	    -29.24182138	     -4.58913558	      1.02421890	    100.35936304	     -3.53601560	     73.32256913	    123.39374579	     89.83007142	    108.75143842	      4.89953867	     86.11899089	    117.77561093	     72.83696358
      6.21666670	    -12.51423789	     13.16264496	     -8.57807746	      0.28868131	      0.67588575	      0.00642121	     65.08110947	      7.91394064	      9.98620495	     84.87995164	     31.65890646	    -16.88362210	      0.00000000	     69.28702773	     -1.29291830	    -12.01725978	     10.62078842	    -14.56405776	     -3.23799586	      0.00000000	    -29.71822283	     -4.59767373	      0.66188573	    100.50181797	     -3.04698507	     73.55501343	    124.48219206	     89.84895734	    109.28925048	      3.92321292	     85.64333569	    117.54003936	     72.73249161
      6.23333330	    -12.64667823	     13.22744476	     -8.43868585	      0.28769819	      0.67331734	      0.00854788	     65.76202553	      8.13348511	      9.80256539	     85.67906248	     32.99239329	    -17.90121735	      0.00000000	     69.56737439	     -1.65223533	    -12.46885484	      9.96725333	    -14.59491424	     -3.86980859	      0.00000000	    -30.33911742	     -4.55618805	      0.87714645	    100.74406340	     -2.78736181	     74.13169938	    126.51322560	     89.97275663	    109.72106808	      3.66402412	     85.04722459	    118.17654501	     72.59730221
      6.25000000	    -12.62761776	     13.24679279	     -8.37492020	      0.28758994	      0.67192184	      0.00949703	     66.08331261	      8.30245788	      9.67935115	     86.20899514	     33.69474219	    -18.40093624	      0.00000000	     69.43711834	     -1.91815295	    -12.96755039	      9.04938452	    -14.66961756	     -4.13358274	      0.00000000	    -31.06041138	     -4.46579742	      1.22802263	    100.71335728	     -2.82538633	     74.76900954	    129.14285327	     90.30870966	    109.95024819	      4.15613939	     84.97351057	    118.38444908	     72.49171572
      6.26666670	    -12.63675748	     13.25444210	     -8.48183325	      0.28653480	      0.66972696	      0.00908192	     66.10277953	      8.58010078	      9.47783343	     86.42584984	     33.79728604	    -18.04775996	      0.00000000	     69.37366501	     -2.24232705	    -13.57204332	      8.26481970	    -14.59086733	     -4.00808940	      0.00000000	    -31.69549266	     -4.41067161	      1.78501894	    100.65731482	     -2.99787390	     75.13733357	    131.64295699	     90.72161714	    110.06846877	      4.89227733	     85.09383301	    118.70273559	     72.48152017
